<?xml version="1.0" standalone="no"?> <!DOCTYPE svg PUBLIC "-//W3C//DTD SVG 1.0//EN" "http://www.w3.org/TR/2001/REC-SVG-20010904/DTD/svg10.dtd" > <svg xmlns="http://www.w3.org/2000/svg" width="100%" height="100%">
<defs >
<font id="metapro-normal" horiz-adv-x="432" ><font-face
    font-family="MetaPro-Normal"
    units-per-em="1000"
    panose-1="2 0 5 3 4 0 0 2 0 4"
    ascent="754"
    descent="-246"
    alphabetic="0" />
<missing-glyph horiz-adv-x="556" d="M76 686H480V0H76V686ZM430 50V636H126V50H430Z" />
<glyph unicode=" " glyph-name="space" horiz-adv-x="230" />
<glyph unicode="!" glyph-name="exclam" horiz-adv-x="292" d="M175 198H115L96 686L194 699L175 198ZM207 -7T146 -7Q85 -7 85 55Q85 116 146 116Q207 116 207 56Q207 -7 146 -7Z" />
<glyph unicode="&quot;" glyph-name="quotedbl" horiz-adv-x="409" d="M242 468V708H314V468H242ZM95 468V708H167V468H95Z" />
<glyph unicode="#" glyph-name="numbersign" horiz-adv-x="566" d="M424 431L403 279H501V213H393L363 0H296L326 213H200L170 0H103L133 213H35V279H143L163 431H65V497H173L203 708H270L240 497H366L396 708H463L433 497H531V431H424ZM231 431L210 279H336L357
431H231Z" />
<glyph unicode="$" glyph-name="dollar" horiz-adv-x="579" d="M524 120T467 61Q410 1 325 -10V-107H266V-13Q156 -13 55 49L91 113Q174 54 266 54V323L241 331Q149 361 119 392Q76 438 76 504Q76 584 128 637Q180 690 266 699V783H325V700Q421 692 505 635L469
576Q389 628 325 633V394L358 384Q441 358 479 315Q524 264 524 194Q524 120 467 61ZM433 267T325 304V58Q433 77 433 182Q433 267 325 304ZM266 631Q165 615 165 521Q165 448 266 412V631Z" />
<glyph unicode="%" glyph-name="percent" horiz-adv-x="858" d="M813 -10T652 -10Q491 -10 491 162Q491 332 651 332Q732 332 774 283Q813 237 813 156Q813 -10 652 -10ZM367 349T206 349Q45 349 45 521Q45 691 205 691Q286 691 328 642Q367 596 367 515Q367 349
206 349ZM298 0H232L565 681H631L298 0ZM300 567T284 596Q261 636 204 636Q113 636 113 529Q113 404 209 404Q300 404 300 511Q300 567 284 596ZM746 208T730 237Q707 277 650 277Q559 277 559 170Q559 45 655 45Q746 45 746 152Q746 208 730 237Z" />
<glyph unicode="&amp;" glyph-name="ampersand" horiz-adv-x="684" d="M560 0L493 65Q428 -15 297 -15Q191 -15 127 36Q65 87 65 170Q65 231 102 274Q134 310 205 344Q108 431 108 498Q108 566 162 612Q214 656 286 656Q364 656 415 616Q470 573 470 502Q470 448
433 409Q403 378 327 337L488 178Q500 203 504 249Q505 268 505 291V332H574Q574 249 564 200Q556 163 537 126L664 0H560ZM252 303Q151 255 151 164Q151 46 299 46Q402 46 450 110L252 303ZM384 599T287 599Q248 599 222 578Q192 553 192 508Q192 479 209 454Q227
428 282 380Q384 428 384 503Q384 599 287 599Z" />
<glyph unicode="&apos;" glyph-name="quotesingle" horiz-adv-x="262" d="M95 468V708H167V468H95Z" />
<glyph unicode="(" glyph-name="parenleft" horiz-adv-x="325" d="M328 -155Q195 -104 135 51Q114 105 104 186Q95 253 95 321Q95 445 120 531Q143 607 190 665Q250 740 328 770L347 732Q291 699 258 661Q219 615 201 553Q175 460 175 323Q175 218 187 143Q202
55 235 -3Q276 -74 350 -115L328 -155Z" />
<glyph unicode=")" glyph-name="parenright" horiz-adv-x="325" d="M230 172T205 87Q182 10 135 -48Q75 -123 -3 -153L-22 -115Q34 -82 67 -44Q106 2 124 64Q150 157 150 294Q150 399 138 474Q123 562 90 620Q49 691 -25 732L-3 772Q130 721 190 566Q211 512 221
431Q230 364 230 296Q230 172 205 87Z" />
<glyph unicode="*" glyph-name="asterisk" horiz-adv-x="472" d="M286 501L375 382L326 344L236 467L149 344L99 382L186 501L45 549L64 607L206 559V708H266V559L408 607L427 549L286 501Z" />
<glyph unicode="+" glyph-name="plus" horiz-adv-x="538" d="M305 214V36H233V214H55V286H233V464H305V286H483V214H305Z" />
<glyph unicode="," glyph-name="comma" horiz-adv-x="290" d="M215 -23T177 -74Q146 -114 93 -143L65 -99Q124 -70 132 -10Q132 -11 121 -11Q66 -11 66 53Q66 125 136 125Q215 125 215 29Q215 -23 177 -74Z" />
<glyph unicode="-" glyph-name="hyphen" horiz-adv-x="301" d="M55 229V305H246V229H55Z" />
<glyph unicode="." glyph-name="period" horiz-adv-x="284" d="M209 -13T143 -13Q75 -13 75 56Q75 122 141 122Q209 122 209 56Q209 -13 143 -13Z" />
<glyph unicode="/" glyph-name="slash" horiz-adv-x="455" d="M131 -148H65L324 757H390L131 -148Z" />
<glyph unicode="0" glyph-name="zero" horiz-adv-x="578" d="M513 133T452 63Q392 -7 290 -7Q183 -7 124 64Q65 134 65 258Q65 379 126 449Q186 519 288 519Q395 519 454 448Q513 378 513 254Q513 133 452 63ZM431 454T287 454Q147 454 147 271Q147 58 291 58Q431
58 431 241Q431 454 287 454Z" />
<glyph unicode="1" glyph-name="one" horiz-adv-x="434" d="M116 0V63H208V412Q180 394 142 377Q127 370 107 362L72 348L55 391L226 507H287V63H379V0H116Z" />
<glyph unicode="2" glyph-name="two" horiz-adv-x="552" d="M461 0H79V63L156 123L277 224Q361 294 361 363Q361 450 255 450Q219 450 185 437Q147 422 97 385L65 425Q172 518 275 518Q354 518 403 480Q454 441 454 374Q454 270 252 125L162 60Q210 64 265 64H477L461 0Z" />
<glyph unicode="3" glyph-name="three" horiz-adv-x="526" d="M461 -3T428 -52Q397 -99 348 -128Q300 -156 238 -170Q183 -182 121 -182Q102 -182 85 -180L72 -179L54 -126Q54 -129 116 -129Q183 -129 235 -111Q282 -96 315 -67Q373 -15 373 58Q373 118 329 150Q288
180 205 180H159V236L242 237Q261 238 269 239Q358 252 358 342Q358 450 239 450Q202 450 169 439Q130 425 80 391L45 432Q146 515 253 515Q336 515 390 470Q443 424 443 352Q443 238 322 204Q461 172 461 51Q461 -3 428 -52Z" />
<glyph unicode="4" glyph-name="four" horiz-adv-x="545" d="M418 1V-2Q418 -5 419 -9V-176L342 -199V-28L343 1L315 0H45V62L275 512H362L171 138Q160 116 142 85L136 75Q134 70 131 66L127 59L152 62H343V91Q343 125 347 181L357 321L419 340V81L418 61L429
62Q434 62 440 63H500V0L418 1Z" />
<glyph unicode="5" glyph-name="five" horiz-adv-x="502" d="M437 -53T351 -120Q268 -185 148 -185Q111 -185 74 -175L60 -115Q93 -129 135 -129Q226 -129 288 -76Q351 -23 351 53Q351 183 202 183Q124 183 75 161L107 498H403L391 432H178L161 238L183 241Q208
243 229 243Q319 243 376 195Q437 143 437 53Q437 -53 351 -120Z" />
<glyph unicode="6" glyph-name="six" horiz-adv-x="575" d="M510 108T447 46Q384 -17 290 -17Q188 -17 127 58Q65 132 65 255Q65 403 161 518Q219 586 290 630Q352 669 431 692L450 642Q372 618 307 568Q246 523 212 469Q200 450 190 427Q182 408 176 387Q173
379 171 371L165 346Q220 398 311 398Q389 398 447 348Q510 292 510 201Q510 108 447 46ZM420 266T384 303Q350 338 295 338Q227 338 160 285L159 269Q157 249 157 234Q157 139 192 93Q228 44 290 44Q420 44 420 199Q420 266 384 303Z" />
<glyph unicode="7" glyph-name="seven" horiz-adv-x="505" d="M451 419Q351 281 272 130Q239 67 209 -9Q175 -96 162 -157L66 -182Q71 -148 88 -98Q103 -55 126 -3Q145 40 169 89Q187 125 206 161Q305 343 391 434L299 432H35L54 498H470L451 419Z" />
<glyph unicode="8" glyph-name="eight" horiz-adv-x="578" d="M513 99T452 44Q388 -14 287 -14Q184 -14 122 40Q65 90 65 168Q65 235 112 284Q148 322 206 344Q88 399 88 499Q88 574 143 619Q200 665 299 665Q385 665 438 623Q491 581 491 513Q491 454 450 412Q418
380 356 352L386 338Q403 331 415 324Q446 308 465 292Q513 250 513 180Q513 99 452 44ZM431 210T407 235Q380 263 255 320Q228 306 212 294Q191 280 177 264Q145 228 145 173Q145 42 293 42Q354 42 393 75Q431 108 431 161Q431 210 407 235ZM415 608T289 608Q164
608 164 506Q164 470 188 443Q219 407 300 376Q415 437 415 507Q415 608 289 608Z" />
<glyph unicode="9" glyph-name="nine" horiz-adv-x="573" d="M508 95T382 -50Q326 -115 239 -160Q161 -200 95 -207L55 -159Q107 -154 172 -121Q232 -91 282 -48Q326 -10 357 37Q382 76 398 122Q341 80 270 80Q183 80 127 139Q70 198 70 289Q70 384 135 449Q199
513 294 513Q386 513 446 448Q508 380 508 269Q508 95 382 -50ZM422 350T386 400Q349 451 289 451Q230 451 193 407Q157 362 157 291Q157 140 280 140Q349 140 414 195Q422 232 422 268Q422 350 386 400Z" />
<glyph unicode=":" glyph-name="colon" horiz-adv-x="304" d="M219 -12T151 -12Q85 -12 85 55Q85 123 153 123Q219 123 219 56Q219 -12 151 -12ZM219 304T152 304Q85 304 85 370Q85 439 153 439Q219 439 219 372Q219 304 152 304Z" />
<glyph unicode=";" glyph-name="semicolon" horiz-adv-x="320" d="M235 -23T197 -74Q166 -114 113 -143L85 -99Q144 -70 152 -10Q152 -11 141 -11Q86 -11 86 53Q86 125 156 125Q235 125 235 29Q235 -23 197 -74ZM220 303T153 303Q85 303 85 374Q85 438 152 438Q220
438 220 372Q220 303 153 303Z" />
<glyph unicode="&lt;" glyph-name="less" horiz-adv-x="327" d="M216 43L25 300L216 557L282 514L122 300L282 86L216 43Z" />
<glyph unicode="=" glyph-name="equal" horiz-adv-x="632" d="M55 348V414H577V348H55ZM55 192V258H577V192H55Z" />
<glyph unicode="&gt;" glyph-name="greater" horiz-adv-x="328" d="M111 43L45 86L205 300L45 514L111 557L303 300L111 43Z" />
<glyph unicode="?" glyph-name="question" horiz-adv-x="438" d="M383 514T369 483Q357 458 337 435Q321 419 301 403L278 386Q209 331 234 222H167Q136 349 214 423L229 436Q232 439 237 442L252 454Q256 457 260 459L274 472Q304 501 304 544Q304 627 214 627Q153
627 78 581L45 636Q122 695 229 695Q298 695 341 655Q383 615 383 548Q383 514 369 483ZM275 -14T208 -14Q140 -14 140 55Q140 122 207 122Q275 122 275 55Q275 -14 208 -14Z" />
<glyph unicode="@" glyph-name="at" horiz-adv-x="921" d="M856 148T791 65Q728 -14 639 -14Q576 -14 549 25Q527 57 535 103Q511 60 469 31Q422 -2 374 -2Q329 -2 298 33Q263 73 263 141Q263 269 330 357Q404 453 527 453Q591 453 650 421L639 378Q631 349 627
329L589 148Q566 39 642 39Q702 39 744 109Q785 178 785 277Q785 403 698 486Q609 571 469 571Q323 571 227 458Q137 352 137 204Q137 66 229 -23Q318 -110 451 -110Q531 -110 588 -91L601 -145Q541 -165 451 -165Q288 -165 180 -70Q65 32 65 204Q65 382 179 503Q295
625 469 625Q635 625 744 530Q856 433 856 277Q856 148 791 65ZM571 387Q548 401 520 401Q427 401 376 312Q333 237 333 137Q333 57 395 57Q435 57 473 92Q517 132 531 198L571 387Z" />
<glyph unicode="A" glyph-name="A" horiz-adv-x="583" d="M480 0L415 211H159L93 0H10L239 686H346L573 0H480ZM289 614L181 278H394L289 614Z" />
<glyph unicode="B" glyph-name="B" horiz-adv-x="609" d="M544 62T437 20Q407 9 379 5Q344 0 272 0H95V686H194Q294 686 334 683Q371 680 398 671Q515 631 515 514Q515 403 392 364Q450 353 482 328Q514 304 530 264Q544 229 544 188Q544 62 437 20ZM458 299T375
316Q342 323 295 323H174V67H320Q458 67 458 195Q458 299 375 316ZM424 591T346 611Q323 617 271 617H174V391H293Q387 391 413 450Q424 475 424 503Q424 591 346 611Z" />
<glyph unicode="C" glyph-name="C" horiz-adv-x="573" d="M538 45Q452 -11 347 -11Q227 -11 147 80Q105 128 84 197Q65 261 65 341Q65 494 147 595Q229 695 353 695Q453 695 526 639L482 586Q423 629 352 629Q234 629 183 511Q154 444 154 329Q154 239 176 184Q228
56 360 56Q432 56 494 100L538 45Z" />
<glyph unicode="D" glyph-name="D" horiz-adv-x="633" d="M568 256T546 188Q526 126 490 86Q413 0 274 0H95V686H232Q317 686 356 678Q404 667 452 633Q568 550 568 342Q568 256 546 188ZM479 485T420 556Q388 594 350 607Q317 619 259 619H177V68H259Q323 68
359 80Q408 96 433 140Q479 219 479 332Q479 485 420 556Z" />
<glyph unicode="E" glyph-name="E" horiz-adv-x="520" d="M95 0V686H470L459 618H178V393H413V322H178V71H480V0H95Z" />
<glyph unicode="F" glyph-name="F" horiz-adv-x="441" d="M443 618H178V393H398V326H178V0H95V686H456L443 618Z" />
<glyph unicode="G" glyph-name="G" horiz-adv-x="639" d="M554 41Q474 -11 361 -11Q230 -11 150 75Q65 167 65 341Q65 533 171 629Q243 694 350 694Q459 694 538 626L501 575Q423 628 352 628Q222 628 181 512Q154 436 154 338Q154 200 202 130Q252 57 368 57Q434
57 477 84V293H339L323 361H554V41Z" />
<glyph unicode="H" glyph-name="H" horiz-adv-x="641" d="M464 0V332H175V0H95V686H175V399H464V686H546V0H464Z" />
<glyph unicode="I" glyph-name="I" horiz-adv-x="270" d="M95 0V686H175V0H95Z" />
<glyph unicode="J" glyph-name="J" horiz-adv-x="279" d="M184 117Q184 4 159 -40Q125 -100 43 -128L3 -77Q60 -54 85 -10Q102 20 102 115V686H184V117Z" />
<glyph unicode="K" glyph-name="K" horiz-adv-x="556" d="M275 364L549 0H444L182 363L446 686H551L275 364ZM95 0V686H178V0H95Z" />
<glyph unicode="L" glyph-name="L" horiz-adv-x="463" d="M437 0H95V686H177V69H448L437 0Z" />
<glyph unicode="M" glyph-name="M" horiz-adv-x="806" d="M654 0L614 503Q612 530 610 576L609 619L582 512L435 0H365L229 487Q216 532 205 573L195 618L187 488L149 0H70L130 686H250L375 238Q386 198 395 157L402 119L409 156Q418 196 427 230L556 686H677L736 0H654Z" />
<glyph unicode="N" glyph-name="N" horiz-adv-x="646" d="M465 0L245 420L214 481L190 534Q167 583 167 585L171 525Q173 494 174 465Q176 429 176 398L180 0H95V686H190L418 248Q430 226 442 199Q452 178 462 154L482 104L478 173Q476 207 475 239Q473 279 473
313L470 686H551V0H465Z" />
<glyph unicode="O" glyph-name="O" horiz-adv-x="681" d="M616 144T516 53Q443 -13 342 -13Q223 -13 147 74Q65 168 65 346Q65 509 138 604Q211 698 338 698Q418 698 478 660Q503 645 523 624Q540 607 554 586Q616 494 616 332Q616 144 516 53ZM524 469T491 538Q471
580 435 604Q394 632 338 632Q233 632 191 552Q156 486 156 363Q156 199 200 124Q244 50 346 50Q427 50 474 109Q500 142 512 188Q524 238 524 320Q524 469 491 538Z" />
<glyph unicode="P" glyph-name="P" horiz-adv-x="548" d="M523 383T461 327Q400 273 295 273H175V0H95V686H285Q386 686 435 654Q523 596 523 490Q523 383 461 327ZM432 549T392 583Q352 617 262 617H175V340H290Q364 340 397 377Q432 416 432 474Q432 549 392 583Z" />
<glyph unicode="Q" glyph-name="Q" horiz-adv-x="681" d="M670 -115Q652 -124 611 -124Q583 -124 542 -105Q526 -98 508 -89L447 -52Q431 -43 417 -36Q385 -23 335 -13Q276 -13 225 13Q182 35 148 74Q65 169 65 346Q65 509 138 604Q211 698 338 698Q414 698 472
664Q522 635 554 586Q617 487 617 332Q617 147 516 53Q495 34 472 20Q490 14 518 -1L572 -31Q576 -34 581 -36Q591 -41 602 -45Q629 -55 656 -55Q668 -55 681 -53Q693 -52 697 -50L670 -115ZM525 467T491 538Q472 579 439 602Q398 632 338 632Q238 632 193 552Q156
485 156 363Q156 201 201 124Q244 50 347 50Q428 50 474 109Q525 175 525 320Q525 467 491 538Z" />
<glyph unicode="R" glyph-name="R" horiz-adv-x="556" d="M428 0Q411 38 367 106Q316 185 253 266Q219 309 177 310V0H95V686H255Q322 686 364 674Q401 664 428 642Q456 619 474 588Q496 548 496 498Q496 413 446 362Q396 310 314 310H304Q325 293 345 269Q353
260 361 249L373 233Q383 220 410 180L531 0H428ZM410 576T343 603Q309 617 257 617H178V361H251Q337 361 375 396Q410 428 410 499Q410 576 343 603Z" />
<glyph unicode="S" glyph-name="S" horiz-adv-x="579" d="M524 90T429 29Q364 -13 275 -13Q155 -13 55 49L91 113Q173 54 275 54Q344 54 384 84Q433 121 433 182Q433 273 310 310L241 331Q151 358 119 392Q76 438 76 504Q76 592 137 646Q198 701 298 701Q408 701
505 635L469 576Q380 634 302 634Q165 634 165 521Q165 446 279 409L358 384Q441 358 479 315Q524 264 524 194Q524 90 429 29Z" />
<glyph unicode="T" glyph-name="T" horiz-adv-x="464" d="M474 617H288V0H209V617H25V686H479L474 617Z" />
<glyph unicode="U" glyph-name="U" horiz-adv-x="635" d="M545 198Q545 85 493 41Q431 -12 313 -12Q164 -12 110 87Q98 109 93 142Q91 154 91 169Q90 175 90 182V686H171V224Q171 195 174 170Q177 140 183 125Q195 98 223 80Q260 58 317 58Q406 58 438 101Q464
136 464 208V686H545V198Z" />
<glyph unicode="V" glyph-name="V" horiz-adv-x="577" d="M327 0H246L15 686H104L249 244Q263 203 275 153Q286 109 289 91Q293 108 303 141Q315 185 331 234L478 686H562L327 0Z" />
<glyph unicode="W" glyph-name="W" horiz-adv-x="822" d="M640 0H533L448 381Q440 416 433 452L415 553Q412 569 412 574L391 454Q384 418 377 387L293 0H187L25 686H113L200 285Q207 255 214 218L237 77L262 212L367 686H460L555 260Q563 225 570 190L590 77L602
146Q608 181 615 213Q622 253 630 288L715 686H797L640 0Z" />
<glyph unicode="X" glyph-name="X" horiz-adv-x="546" d="M437 0L267 315L106 0H10L213 368L31 686H128L265 432L396 686H492L320 374L536 0H437Z" />
<glyph unicode="Y" glyph-name="Y" horiz-adv-x="519" d="M301 267V0H216V272L-5 686H96L226 424Q233 411 239 396L261 347L298 424L430 686H524L301 267Z" />
<glyph unicode="Z" glyph-name="Z" horiz-adv-x="518" d="M452 0H45V63L338 552Q347 567 356 580L370 601Q382 619 382 618L55 617L78 686H469V616L168 108L142 69L160 70H473L452 0Z" />
<glyph unicode="[" glyph-name="bracketleft" horiz-adv-x="285" d="M95 -156V732H260V672H167V-96H260V-156H95Z" />
<glyph unicode="\" glyph-name="backslash" horiz-adv-x="414" d="M326 -43L25 726L88 750L389 -18L326 -43Z" />
<glyph unicode="]" glyph-name="bracketright" horiz-adv-x="285" d="M25 -156V-96H118V672H25V732H190V-156H25Z" />
<glyph unicode="^" glyph-name="asciicircum" horiz-adv-x="636" d="M497 275L318 624L139 275H65L288 708H348L571 275H497Z" />
<glyph unicode="_" glyph-name="underscore" horiz-adv-x="510" d="M5 -125V-75H505V-125H5Z" />
<glyph unicode="`" glyph-name="grave" horiz-adv-x="360" d="M279 565L55 665L98 742L305 612L279 565Z" />
<glyph unicode="a" glyph-name="a" horiz-adv-x="529" d="M432 -19Q378 -2 364 54Q297 -13 220 -13Q136 -13 94 33Q60 70 60 129Q60 308 324 308Q359 308 359 307V342Q359 402 343 420Q319 447 276 447Q182 447 117 388L78 444Q179 511 287 511Q393 511 425 433Q433
414 435 385Q437 362 436 323L432 159Q430 97 437 75Q445 52 472 37L432 -19ZM357 253H352L318 255Q147 255 147 136Q147 45 233 45Q316 45 354 123L357 253Z" />
<glyph unicode="b" glyph-name="b" horiz-adv-x="572" d="M507 136T453 62Q398 -12 309 -12Q222 -12 172 54Q169 22 158 0H80Q95 33 95 124V614Q95 655 89 689L82 716L160 731L164 714Q165 707 167 701Q173 661 173 613V497Q173 481 172 460L171 442Q239 509 314
509Q403 509 455 441Q507 373 507 256Q507 136 453 62ZM420 355T391 395Q361 438 297 438Q219 438 172 373V117Q218 57 295 57Q355 57 385 101Q400 124 409 160Q420 203 420 261Q420 355 391 395Z" />
<glyph unicode="c" glyph-name="c" horiz-adv-x="469" d="M424 55Q359 -11 272 -11Q166 -11 113 64Q65 134 65 241Q65 317 86 372Q104 417 140 453Q198 511 275 511Q318 511 353 495Q379 483 411 457L368 403Q320 443 273 443Q209 443 179 387Q151 335 151 224Q151
51 274 51Q336 51 381 105L424 55Z" />
<glyph unicode="d" glyph-name="d" horiz-adv-x="571" d="M411 0L409 4Q408 10 406 16Q401 35 400 51Q349 -7 268 -7Q65 -7 65 245Q65 405 168 476Q213 507 264 507Q352 507 399 444L398 730L476 717V161Q476 40 491 0H411ZM397 391Q360 443 276 443Q215 443 183
391Q151 340 151 247Q151 153 171 117Q204 59 271 59Q322 59 367 91Q380 100 390 115Q397 125 397 127V391Z" />
<glyph unicode="e" glyph-name="e" horiz-adv-x="521" d="M155 236V224Q155 150 178 115Q218 54 302 54Q373 54 424 101L454 51Q386 -11 286 -11Q183 -11 124 60Q65 130 65 254Q65 371 125 442Q184 511 274 511Q357 511 409 457Q442 424 454 380Q466 335 466 247V236H155ZM383
295Q382 371 360 406Q332 450 270 450Q161 450 155 295H383Z" />
<glyph unicode="f" glyph-name="f" horiz-adv-x="303" d="M319 640Q279 663 245 663Q177 663 177 575V498H315L291 439H177V0H95V439H47V498H95V576Q95 625 115 659Q122 672 133 683L142 691Q145 695 150 698Q185 724 238 724Q304 724 348 695L319 640Z" />
<glyph unicode="g" glyph-name="g" horiz-adv-x="514" d="M514 454Q472 424 430 424Q410 424 396 430Q426 393 426 345Q426 255 352 208Q318 186 259 186Q169 154 169 128Q169 104 209 104H289Q369 104 409 76Q464 38 464 -29Q464 -186 266 -186Q155 -186 100
-149Q50 -116 50 -59Q50 -35 60 -6L142 1Q128 -21 128 -44Q128 -84 157 -102Q196 -125 258 -125Q379 -125 379 -38Q379 4 352 22Q326 40 254 40L177 39Q83 39 83 111Q83 168 173 196Q61 231 61 340Q61 415 112 462Q163 508 245 508Q270 508 292 504Q306 501 327
494L358 484Q377 480 397 480Q433 480 466 502L514 454ZM335 444T243 444Q149 444 149 341Q149 242 245 242Q335 242 335 344Q335 444 243 444Z" />
<glyph unicode="h" glyph-name="h" horiz-adv-x="567" d="M395 0V344Q395 399 376 418Q356 438 318 438Q241 438 173 354V0H95V614Q95 655 89 689L82 716L160 731L164 714Q165 707 167 701Q173 661 173 613V497Q173 477 172 451L170 429Q208 465 246 484Q292 508
336 508Q440 508 464 429Q472 402 472 357V0H395Z" />
<glyph unicode="i" glyph-name="i" horiz-adv-x="271" d="M95 0V496L176 509V0H95ZM198 591T137 591Q76 591 76 651Q76 713 137 713Q198 713 198 652Q198 591 137 591Z" />
<glyph unicode="j" glyph-name="j" horiz-adv-x="270" d="M175 10Q175 -66 161 -100Q134 -164 59 -198L20 -146Q68 -125 83 -86Q95 -56 95 17V494L175 510V10ZM196 591T135 591Q74 591 74 652Q74 713 135 713Q196 713 196 652Q196 591 135 591Z" />
<glyph unicode="k" glyph-name="k" horiz-adv-x="514" d="M95 0V614Q95 655 89 689L82 716L160 731L164 714Q165 707 167 701Q173 661 173 613V0H95ZM405 0L176 282L366 498H464L268 282L509 0H405Z" />
<glyph unicode="l" glyph-name="l" horiz-adv-x="269" d="M228 1Q204 -10 178 -10Q142 -10 119 11Q95 32 95 82V610Q95 651 89 685L83 712L161 727L165 710Q166 703 168 697Q174 657 174 609V100Q174 50 202 50L212 52L228 1Z" />
<glyph unicode="m" glyph-name="m" horiz-adv-x="812" d="M637 0V368Q637 441 573 441Q542 441 510 421Q486 405 441 364V0H362V354Q362 400 348 418Q331 438 297 438Q243 438 170 372V0H95V386Q95 431 86 466L80 486Q77 493 77 492L153 510L162 486Q171 458 171
436Q198 466 237 487Q280 511 316 511Q404 511 432 428Q510 511 592 511Q647 511 682 473Q717 435 717 376V0H637Z" />
<glyph unicode="n" glyph-name="n" horiz-adv-x="556" d="M382 0V337Q382 398 364 420Q346 441 309 441Q237 441 171 371V0H95V384Q95 428 86 463L82 474Q81 479 79 483Q76 490 76 489L152 510L161 486Q165 474 167 461Q170 446 170 432Q247 509 327 509Q416 509
449 436Q461 409 461 378V0H382Z" />
<glyph unicode="o" glyph-name="o" horiz-adv-x="549" d="M489 120T429 52Q372 -13 275 -13Q173 -13 116 58Q60 128 60 252Q60 373 117 443Q174 513 272 513Q331 513 376 488Q415 466 443 426Q489 359 489 241Q489 120 429 52ZM400 338T377 385Q346 449 271 449Q197
449 169 395Q145 349 145 265Q145 153 176 102Q206 52 277 52Q358 52 385 127Q400 169 400 235Q400 338 377 385Z" />
<glyph unicode="p" glyph-name="p" horiz-adv-x="569" d="M504 144T464 78Q408 -13 310 -13Q229 -13 173 45V-193L95 -208V390Q95 438 90 472L84 497L164 511L167 494Q168 483 168 470Q169 454 169 435Q231 508 316 508Q399 508 449 446Q504 378 504 250Q504 144
464 78ZM421 334T398 383Q372 438 306 438Q231 438 173 368V117Q230 52 295 52Q372 52 400 114Q421 159 421 240Q421 334 398 383Z" />
<glyph unicode="q" glyph-name="q" horiz-adv-x="569" d="M489 498Q489 499 487 490Q485 485 484 479L482 465Q478 446 476 425Q474 399 474 370V-187L399 -203V56Q343 -9 259 -9Q192 -9 145 31Q106 63 87 110Q65 161 65 234Q65 369 112 433Q170 513 261 513Q339
513 402 443Q403 456 406 471L408 487Q410 494 412 498H489ZM399 372Q354 443 272 443Q202 443 171 382Q148 337 148 252Q148 178 162 137Q172 108 195 87Q225 58 278 58Q358 58 399 135V372Z" />
<glyph unicode="r" glyph-name="r" horiz-adv-x="324" d="M307 423Q297 427 285 427Q238 427 202 391Q173 362 173 312V0H95V384Q95 430 87 464L81 484Q78 491 78 490L156 511L162 496Q164 491 165 486Q169 473 171 460Q173 444 172 430Q231 513 312 513L322 512Q326
512 330 511L339 508L307 423Z" />
<glyph unicode="s" glyph-name="s" horiz-adv-x="481" d="M426 75T374 30Q322 -15 238 -15Q137 -15 55 35L85 93Q162 46 243 46Q344 46 344 132Q344 197 262 214L200 227Q74 253 74 364Q74 431 124 474Q173 517 251 517Q333 517 403 477L374 419Q336 437 312 445Q279
455 249 455Q155 455 155 373Q155 316 227 301L293 287Q426 259 426 148Q426 75 374 30Z" />
<glyph unicode="t" glyph-name="t" horiz-adv-x="320" d="M276 439H172V118Q172 44 236 44Q265 44 285 54L296 4Q258 -16 208 -16Q173 -16 143 -2Q95 21 95 97V439H30V498H95Q95 528 99 579L103 624L185 642L180 595Q178 570 177 548Q175 521 175 498H300L276 439Z" />
<glyph unicode="u" glyph-name="u" horiz-adv-x="557" d="M446 -21Q401 16 392 59Q335 -17 234 -17Q137 -17 103 54Q90 81 90 128V494L167 509V151Q167 88 197 67Q222 50 258 50Q340 50 385 140V493L462 506V143Q462 63 496 32L446 -21Z" />
<glyph unicode="v" glyph-name="v" horiz-adv-x="473" d="M271 -5H194L15 494L95 511L211 168Q220 142 228 110Q235 85 235 83H237Q237 85 243 108L261 167L375 498H458L271 -5Z" />
<glyph unicode="w" glyph-name="w" horiz-adv-x="695" d="M534 -4H457L358 346Q344 397 344 401H342L338 382Q334 360 331 350L231 -4H158L20 494L98 511L178 182Q196 107 196 99H199L204 122Q210 149 216 171L305 498H390L477 167Q481 150 490 120L497 94H499L514
163L593 498H675L534 -4Z" />
<glyph unicode="x" glyph-name="x" horiz-adv-x="467" d="M367 0L232 212L97 0H5L191 276L37 498H133L232 332L328 498H419L271 276L462 0H367Z" />
<glyph unicode="y" glyph-name="y" horiz-adv-x="459" d="M273 -18Q246 -99 213 -141Q174 -190 112 -205L89 -152Q137 -137 160 -106Q184 -75 204 1L172 -4Q159 67 122 175L15 487L92 513L194 190Q203 161 215 110Q224 69 224 66H226L355 498H444L273 -18Z" />
<glyph unicode="z" glyph-name="z" horiz-adv-x="459" d="M377 0H45V60L316 436H66V498H398V434L139 60H414L377 0Z" />
<glyph unicode="{" glyph-name="braceleft" horiz-adv-x="331" d="M236 -156Q195 -156 165 -124Q131 -88 131 -31V144Q131 195 104 228Q79 258 45 258V318Q78 318 104 349Q131 382 131 431V607Q131 664 166 700Q197 732 236 732H306V672H252Q223 672 212 648Q203
629 203 593V417Q203 358 169 322Q156 308 140 299Q134 295 127 293Q122 290 117 289V287Q128 286 140 280Q156 272 169 259Q203 223 203 158V-17Q203 -53 212 -71Q223 -96 252 -96H306V-156H236Z" />
<glyph unicode="|" glyph-name="bar" horiz-adv-x="256" d="M95 -208V756H161V-208H95Z" />
<glyph unicode="}" glyph-name="braceright" horiz-adv-x="331" d="M286 258Q252 258 227 228Q200 195 200 144V-31Q200 -88 166 -124Q136 -156 95 -156H25V-96H79Q108 -96 119 -71Q128 -53 128 -17V158Q128 223 162 259Q175 272 191 280Q203 286 214 287V289Q209
290 204 293Q197 295 191 299Q175 308 162 322Q128 358 128 417V593Q128 629 119 648Q108 672 79 672H25V732H95Q134 732 165 700Q200 664 200 607V431Q200 382 227 349Q253 318 286 318V258Z" />
<glyph unicode="~" glyph-name="asciitilde" horiz-adv-x="590" d="M525 324Q525 323 524 322L513 308Q507 299 501 293Q487 275 474 264Q440 236 399 236Q373 236 343 247Q324 253 289 270Q271 279 262 282Q248 289 236 293Q206 304 182 304Q152 304 130 282Q112
266 98 234L65 282L88 313Q102 331 116 342Q149 370 190 370Q216 370 246 359Q265 353 300 336Q319 327 327 324Q342 317 354 313Q383 302 407 302Q437 302 460 324Q477 340 492 372L525 324Z" />
</font>
</defs>
</svg>
